<svg width="24" height="24" viewBox="0 0 24 24" fill="none" xmlns="http://www.w3.org/2000/svg">
<path fill-rule="evenodd" clip-rule="evenodd" d="M7.40902 14.246L5.87402 7H18.5C19.151 7 19.628 7.611 19.47 8.243L18.122 13.635C17.917 14.454 17.221 15.056 16.381 15.14L9.56502 15.822C8.54902 15.923 7.62002 15.244 7.40902 14.246Z" stroke="white" stroke-width="1.5" stroke-linecap="round" stroke-linejoin="round"/>
<path d="M5.874 7L5.224 4H3.5" stroke="white" stroke-width="1.5" stroke-linecap="round" stroke-linejoin="round"/>
<path d="M17.109 19.2668C16.907 19.2668 16.743 19.4308 16.745 19.6328C16.745 19.8348 16.909 19.9988 17.111 19.9988C17.313 19.9988 17.477 19.8348 17.477 19.6328C17.476 19.4308 17.312 19.2668 17.109 19.2668" stroke="white" stroke-width="1.5" stroke-linecap="round" stroke-linejoin="round"/>
<path d="M8.697 19.2668C8.495 19.2668 8.331 19.4308 8.333 19.6328C8.331 19.8358 8.496 19.9998 8.698 19.9998C8.9 19.9998 9.064 19.8358 9.064 19.6338C9.064 19.4308 8.9 19.2668 8.697 19.2668" stroke="white" stroke-width="1.5" stroke-linecap="round" stroke-linejoin="round"/>
</svg>
